Patient4_TMGait_0pt2_02_right_04_GRF.mot
version=1
nRows=52
nColumns=19
inDegrees=no
endheader
time	F1x	F1y	F1z	M1x	M1y	M1z	F2x	F2y	F2z	M2x	M2y	M2z	EC1x	EC1y	EC1z	EC2x	EC2y	EC2z
7.65	-7.9417	701.9359	44.446	-222.3983	-45.5823	694.2525	9.8752	99.5862	-9.922	37.1358	7.7909	85.298	-0.0592	0.0182	-0.0073	-0.0462	0.0165	0.9585
7.6731	-8.7239	730.9657	47.7592	-231.3849	-48.4906	721.481	6.4305	88.7	-8.8157	33.2273	7.3658	76.0198	-0.0592	0.0182	-0.0073	-0.0462	0.0165	0.9585
7.6963	-9.3449	763.1878	51.3183	-241.3123	-51.499	751.5766	3.1223	76.2963	-7.6526	28.7048	6.929	65.4428	-0.0592	0.0182	-0.0073	-0.0462	0.0165	0.9585
7.7194	-9.7306	795.4436	54.8471	-251.1846	-54.3392	781.4784	0.21512	63.075	-6.4695	23.8248	6.456	54.1657	-0.0592	0.0182	-0.0073	-0.0462	0.0165	0.9585
7.7426	-9.8431	824.0762	58.0706	-259.8548	-56.7568	807.6462	-2.0745	49.806	-5.2877	18.8838	5.8903	42.8468	-0.0592	0.0182	-0.0073	-0.0462	0.0165	0.9585
7.7657	-9.6429	845.6014	60.7299	-266.2419	-58.5145	826.7083	-3.5748	37.2481	-4.1288	14.1781	5.1734	32.1338	-0.0592	0.0182	-0.0073	-0.0462	0.0165	0.9585
7.7889	-9.0838	857.3934	62.6045	-269.5536	-59.4107	836.1234	-4.1981	26.0627	-3.0318	9.9675	4.2848	22.5901	-0.0592	0.0182	-0.0073	-0.0462	0.0165	0.9585
7.812	-8.1247	858.2967	63.5364	-269.4749	-59.3042	834.7564	-4.0209	16.7528	-2.0566	6.4499	3.2802	14.6398	-0.0592	0.0182	-0.0073	-0.0462	0.0165	0.9585
7.8351	-6.7231	848.9374	63.4435	-266.2601	-58.1266	823.165	-3.3471	9.5812	-1.2616	3.7304	2.2981	8.4985	-0.0592	0.0182	-0.0073	-0.0462	0.0165	0.9585
7.8583	-4.8195	831.5955	62.3364	-260.681	-55.887	803.4641	-2.487	4.4203	-0.66541	1.7659	1.4493	4.0458	-0.0592	0.0182	-0.0073	-0.0462	0.0165	0.9585
7.8814	-2.3472	809.6553	60.3383	-253.8419	-52.6933	778.8168	-1.6326	0.8522	-0.2488	0.40198	0.77225	0.90657	-0.0592	0.0182	-0.0073	-0.0462	0.0165	0.9585
7.9046	0.73581	786.818	57.6775	-246.9255	-48.7536	752.6989	-0.88036	-1.6448	0.027101	-0.55775	0.25661	-1.3812	-0.0592	0.0182	-0.0073	-0.0462	0.0165	0.9585
7.9277	4.4461	766.3939	54.6401	-240.9715	-44.3282	728.234	-0.26198	-3.5647	0.20671	-1.3016	-0.13344	-3.2483	-0.0592	0.0182	-0.0073	-0.0462	0.0165	0.9585
7.9509	8.7622	750.7738	51.5162	-236.7165	-39.6822	707.7048	0.22719	-5.2787	0.32879	-1.9716	-0.43509	-5.0067	-0.0592	0.0182	-0.0073	-0.0462	0.0165	0.9585
7.974	13.6044	741.1005	48.5687	-234.4892	-35.0666	692.2688	0.60609	-6.9665	0.42194	-2.6372	-0.67405	-6.7832	-0.0592	0.0182	-0.0073	-0.0462	0.0165	0.9585
7.9971	18.8321	737.182	46.0204	-234.1821	-30.7103	681.8904	0.89059	-8.5533	0.49853	-3.2702	-0.85944	-8.4603	-0.0592	0.0182	-0.0073	-0.0462	0.0165	0.9585
8.0203	24.257	737.6668	44.0472	-235.3077	-26.8141	675.5028	1.0793	-9.6457	0.54854	-3.7205	-0.97579	-9.6078	-0.0592	0.0182	-0.0073	-0.0462	0.0165	0.9585
8.0434	29.6566	740.4287	42.7727	-237.1226	-23.5466	671.3555	1.1428	-9.4732	0.53678	-3.6927	-0.97136	-9.4175	-0.0592	0.0182	-0.0073	-0.0462	0.0165	0.9585
8.0666	34.7813	742.9833	42.2594	-238.7662	-21.0379	667.393	1.0153	-6.8538	0.40161	-2.7304	-0.75249	-6.6662	-0.0592	0.0182	-0.0073	-0.0462	0.0165	0.9585
8.0897	39.381	742.8612	42.5009	-239.3867	-19.3646	661.5809	0.59281	-0.21172	0.054421	-0.22014	-0.18185	0.26394	-0.0592	0.0182	-0.0073	-0.0462	0.0165	0.9585
8.1129	43.2229	737.8992	43.402	-238.2451	-18.5304	652.154	-0.25958	12.3202	-0.6141	4.5695	0.91191	13.279	-0.0592	0.0182	-0.0073	-0.0462	0.0165	0.9585
8.136	46.0873	726.3433	44.7518	-234.7579	-18.4426	637.6965	-1.6876	32.6423	-1.7167	12.389	2.7111	34.3094	-0.0592	0.0182	-0.0073	-0.0462	0.0165	0.9585
8.1591	47.7835	706.8508	46.2064	-228.5001	-18.8881	617.1239	-3.8237	62.2127	-3.3438	23.8256	5.3667	64.8142	-0.0592	0.0182	-0.0073	-0.0462	0.0165	0.9585
8.1823	48.1732	678.533	47.3423	-219.2129	-19.5707	589.7225	-6.8393	101.4631	-5.5803	39.0713	9.0331	105.1785	-0.0592	0.0182	-0.0073	-0.0462	0.0165	0.9585
8.2054	47.1754	641.1578	47.7759	-206.8557	-20.2068	555.3372	-10.9594	149.3533	-8.7174	57.7203	14.0955	154.294	-0.0592	0.0182	-0.0073	-0.0462	0.0165	0.9585
8.2286	44.7758	595.4192	47.2699	-191.684	-20.6098	514.5903	-16.0318	202.8084	-13.1294	78.5412	20.8688	208.9859	-0.0592	0.0182	-0.0073	-0.0462	0.0165	0.9585
8.2517	41.1248	543.3809	45.7672	-174.398	-20.6867	469.2243	-21.4061	257.3807	-18.6526	99.7791	28.9109	264.6613	-0.0592	0.0182	-0.0073	-0.0462	0.0165	0.9585
8.2749	36.6434	488.5974	43.3809	-156.1835	-20.393	422.1565	-26.4392	309.8518	-24.5193	120.2003	37.1847	317.983	-0.0592	0.0182	-0.0073	-0.0462	0.0165	0.9585
8.298	31.9504	435.1617	40.3431	-138.4041	-19.7072	376.6692	-30.7065	358.9622	-29.9217	139.3487	44.7109	367.6406	-0.0592	0.0182	-0.0073	-0.0462	0.0165	0.9585
8.3211	27.6538	386.2782	36.9185	-122.1364	-18.6258	335.26	-33.948	404.2348	-34.4151	157.05	50.9329	413.1398	-0.0592	0.0182	-0.0073	-0.0462	0.0165	0.9585
8.3443	24.1902	343.4258	33.365	-107.8935	-17.1897	298.9947	-36.0223	445.3128	-37.8672	173.1465	55.6443	454.1101	-0.0592	0.0182	-0.0073	-0.0462	0.0165	0.9585
8.3674	21.7788	306.4734	29.9103	-95.6553	-15.49	267.6255	-36.8933	481.7947	-40.3191	187.4456	58.8457	490.1412	-0.0592	0.0182	-0.0073	-0.0462	0.0165	0.9585
8.3906	20.4467	274.4354	26.7013	-85.113	-13.6203	240.2476	-36.6151	513.3255	-41.8904	199.7738	60.651	520.8868	-0.0592	0.0182	-0.0073	-0.0462	0.0165	0.9585
8.4137	20.0872	246.234	23.7752	-75.9185	-11.6357	215.9441	-35.3143	539.8415	-42.7045	210.0906	61.2147	546.31	-0.0592	0.0182	-0.0073	-0.0462	0.0165	0.9585
8.4369	20.5194	221.1665	21.0927	-67.8337	-9.5606	194.1582	-33.1846	561.7246	-42.8341	218.554	60.683	566.848	-0.0592	0.0182	-0.0073	-0.0462	0.0165	0.9585
8.46	21.5015	199.0567	18.6116	-60.7788	-7.4433	174.8026	-30.4813	579.6528	-42.3274	225.4492	59.215	583.2717	-0.0592	0.0182	-0.0073	-0.0462	0.0165	0.9585
8.4831	22.7229	180.1381	16.3386	-54.7979	-5.3946	158.1517	-27.4957	594.2967	-41.2821	231.0537	57.0388	596.379	-0.0592	0.0182	-0.0073	-0.0462	0.0165	0.9585
8.5063	23.8307	164.7254	14.333	-49.961	-3.5812	144.5463	-24.5189	606.1409	-39.8615	235.5608	54.4446	606.8005	-0.0592	0.0182	-0.0073	-0.0462	0.0165	0.9585
8.5294	24.5084	152.8688	12.6771	-46.2575	-2.1746	134.0832	-21.802	615.4643	-38.2432	239.0732	51.719	614.9514	-0.0592	0.0182	-0.0073	-0.0462	0.0165	0.9585
8.5526	24.5578	144.1682	11.4431	-43.5428	-1.3007	126.4407	-19.5248	622.4116	-36.5886	241.636	49.1023	621.077	-0.0592	0.0182	-0.0073	-0.0462	0.0165	0.9585
8.5757	23.9229	137.7843	10.6589	-41.5421	-1.0055	120.8906	-17.7878	627.1563	-35.039	243.3065	46.7791	625.4078	-0.0592	0.0182	-0.0073	-0.0462	0.0165	0.9585
8.5989	22.6529	132.6825	10.2852	-39.9272	-1.2465	116.519	-16.6305	630.1103	-33.7145	244.2415	44.884	628.3616	-0.0592	0.0182	-0.0073	-0.0462	0.0165	0.9585
8.622	20.8544	127.985	10.2393	-38.425	-1.9245	112.5426	-16.0645	632.0792	-32.6966	244.7599	43.5024	630.6981	-0.0592	0.0182	-0.0073	-0.0462	0.0165	0.9585
8.6451	18.672	123.2005	10.4351	-36.8876	-2.9231	108.5069	-16.1069	634.2626	-32.0185	245.342	42.6742	633.5246	-0.0592	0.0182	-0.0073	-0.0462	0.0165	0.9585
8.6683	16.2771	118.1358	10.7921	-35.2639	-4.1205	104.2152	-16.7993	638.0806	-31.6829	246.5553	42.4165	638.1499	-0.0592	0.0182	-0.0073	-0.0462	0.0165	0.9585
8.6914	13.8413	112.6351	11.2204	-33.5164	-5.3829	99.5062	-18.1777	644.9461	-31.6866	248.9587	42.7366	645.8712	-0.0592	0.0182	-0.0073	-0.0462	0.0165	0.9585
8.7146	11.4906	106.3917	11.6178	-31.5611	-6.5747	94.0882	-20.197	656.0857	-32.0278	253.0301	43.6088	657.7807	-0.0592	0.0182	-0.0073	-0.0462	0.0165	0.9585
8.7377	9.2474	98.9426	11.8584	-29.2658	-7.5722	87.5501	-22.6949	672.3627	-32.7058	259.1023	44.9568	674.5903	-0.0592	0.0182	-0.0073	-0.0462	0.0165	0.9585
8.7609	7.0422	89.8685	11.8073	-26.509	-8.2741	79.5397	-25.3835	694.0812	-33.7158	267.2904	46.649	696.4428	-0.0592	0.0182	-0.0073	-0.0462	0.0165	0.9585
8.784	4.8007	79.0292	11.3676	-23.2512	-8.6172	69.9549	-27.8641	720.7622	-35.0274	277.4078	48.4898	722.6924	-0.0592	0.0182	-0.0073	-0.0462	0.0165	0.9585
8.8071	2.5352	66.6712	10.5069	-19.5662	-8.5743	59.0294	-29.688	750.9146	-36.5737	288.8749	50.2322	751.7157	-0.0592	0.0182	-0.0073	-0.0462	0.0165	0.9585
8.8303	0.38854	53.4106	9.2575	-15.6354	-8.1374	47.3177	-30.477	781.8932	-38.2544	300.662	51.6297	780.8264	-0.0592	0.0182	-0.0073	-0.0462	0.0165	0.9585
